<svg width="500" height="500" viewBox="0 0 500 500" fill="none" xmlns="http://www.w3.org/2000/svg">
<rect width="500" height="500" rx="50" fill="#18181B"/>
<path d="M126.253 145.48V142.4H181.077V317.344C181.077 333.565 177.791 344.448 171.221 349.992C164.65 355.331 154.691 358 141.345 358C128.203 358 116.499 356.049 106.233 352.148L107.157 349.684C117.013 353.585 127.177 355.536 137.649 355.536C144.63 355.536 149.25 352.559 151.509 346.604C153.973 340.649 155.205 330.999 155.205 317.652V145.48H126.253ZM249.751 142.4V278.536L349.235 142.4L351.699 144.556L296.567 219.708L378.495 358H349.851L280.859 241.268L249.751 284.08V358H224.187V142.4H249.751Z" fill="white"/>
</svg>
